<mxfile host="app.diagrams.net" modified="2024-05-21T19:27:27.763Z" agent="Mozilla/5.0 (Windows NT 10.0; Win64; x64) AppleWebKit/537.36 (KHTML, like Gecko) Chrome/125.0.0.0 Safari/537.36" etag="-HvM1mM-HZ1i5ytzB8oI" version="24.4.4" type="device">
  <diagram name="Page-1" id="99z-KFdItTmdi-cfObgQ">
    <mxGraphModel dx="3290" dy="1404" grid="1" gridSize="10" guides="1" tooltips="1" connect="1" arrows="1" fold="1" page="1" pageScale="1" pageWidth="850" pageHeight="1100" math="0" shadow="0">
      <root>
        <mxCell id="0" />
        <mxCell id="1" parent="0" />
        <mxCell id="rWv3sBImrDHKozwETTV4-2" value="" style="rounded=1;whiteSpace=wrap;html=1;movable=0;resizable=0;rotatable=0;deletable=0;editable=0;locked=1;connectable=0;" vertex="1" parent="1">
          <mxGeometry x="-20" y="180" width="1850" height="60" as="geometry" />
        </mxCell>
        <mxCell id="rWv3sBImrDHKozwETTV4-3" value="" style="rounded=1;whiteSpace=wrap;html=1;movable=0;resizable=0;rotatable=0;deletable=0;editable=0;locked=1;connectable=0;" vertex="1" parent="1">
          <mxGeometry x="-20" y="830" width="1850" height="60" as="geometry" />
        </mxCell>
        <mxCell id="rWv3sBImrDHKozwETTV4-4" value="" style="rounded=1;whiteSpace=wrap;html=1;movable=0;resizable=0;rotatable=0;deletable=0;editable=0;locked=1;connectable=0;" vertex="1" parent="1">
          <mxGeometry x="1121" y="240" width="59" height="590" as="geometry" />
        </mxCell>
      </root>
    </mxGraphModel>
  </diagram>
</mxfile>
